<?xml version="1.0" standalone="no"?>
<!DOCTYPE svg PUBLIC "-//W3C//DTD SVG 20010904//EN"
 "http://www.w3.org/TR/2001/REC-SVG-20010904/DTD/svg10.dtd">
<svg version="1.0" xmlns="http://www.w3.org/2000/svg"
 width="100.000000pt" height="100.000000pt" viewBox="0 0 100.000000 100.000000"
 preserveAspectRatio="xMidYMid meet">
<metadata>
Created by potrace 1.11, written by Peter Selinger 2001-2013
</metadata>
<g transform="translate(0.000000,100.000000) scale(0.100000,-0.100000)"
fill="#000000" stroke="none">
<path d="M443 879 c-270 -44 -449 -270 -373 -471 26 -70 104 -145 185 -179 61
-25 69 -44 39 -100 -20 -39 -5 -62 35 -52 34 8 104 56 129 88 13 17 30 25 50
25 50 0 187 45 247 81 117 70 195 191 195 302 0 66 -43 160 -94 205 -100 88
-257 126 -413 101z m242 -74 c216 -75 269 -268 116 -421 -71 -72 -218 -134
-316 -134 -31 0 -44 -7 -76 -42 -31 -34 -39 -39 -38 -23 3 46 -2 66 -18 71
-10 4 -46 19 -80 34 -213 97 -216 324 -5 459 44 28 147 65 202 74 53 8 167 -2
215 -18z"/>
<path d="M474 708 c-68 -18 -104 -83 -104 -190 0 -72 23 -123 63 -139 38 -16
136 -15 166 0 26 14 23 37 -5 34 -83 -11 -101 -11 -121 2 -31 21 -46 77 -40
154 4 55 9 69 31 88 27 23 52 25 117 8 29 -7 47 16 25 34 -16 14 -94 20 -132
9z"/>
</g>
</svg>
