<svg id="Laag_1" data-name="Laag 1" xmlns="http://www.w3.org/2000/svg" viewBox="0 0 100 100"><text transform="translate(34 63.25)" style="font-size:51.05778121948242px;fill:#46ac46;font-family:Kefa-Regular, Kefa">C</text><path d="M31.79,92.54a2.85,2.85,0,0,1-2.87-4.38,15.48,15.48,0,0,0,2.62-9c-14-3.86-23.93-13.33-26-25.08C2.24,35.35,19.51,16.64,44,12.31s47.14,7.36,50.43,26S80.49,75.75,56,80.07A59.29,59.29,0,0,1,47.4,81c-3,4.89-8,8.74-15.08,11.45A3.18,3.18,0,0,1,31.79,92.54Zm3-18.49a2.85,2.85,0,0,1,2.27,2.47,22.82,22.82,0,0,1-.26,7.22,18.15,18.15,0,0,0,6.29-6.81,2.85,2.85,0,0,1,2.59-1.66A54.06,54.06,0,0,0,55,74.45C76.4,70.67,91.59,54.92,88.84,39.34S66.44,14.16,45,17.93,8.41,37.46,11.16,53C12.92,63,22,71.08,34.81,74.05Z" style="fill:#46ac46"/></svg>