<svg id="Laag_1" data-name="Laag 1" xmlns="http://www.w3.org/2000/svg" xmlns:xlink="http://www.w3.org/1999/xlink" viewBox="0 0 482.23 425.3"><defs><linearGradient id="Naamloos_verloop_93" x1="21.18" y1="22.45" x2="455.71" y2="385.98" gradientTransform="matrix(0.98, -0.17, 0.17, 0.98, -22.74, 58.4)" gradientUnits="userSpaceOnUse"><stop offset="0" stop-color="#46ac46"/><stop offset="1" stop-color="#70d866"/></linearGradient><linearGradient id="Naamloos_verloop_94" x1="60.84" y1="21.29" x2="462.01" y2="356.91" gradientUnits="userSpaceOnUse"><stop offset="0" stop-color="#46ac46"/><stop offset="1" stop-color="#46dc46"/></linearGradient><linearGradient id="Naamloos_verloop_94-2" x1="38.3" y1="52.05" x2="439.46" y2="387.67" xlink:href="#Naamloos_verloop_94"/></defs><path d="M159.93,393.41a12.73,12.73,0,0,1-12.82-19.55,69,69,0,0,0,11.72-40.33c-62.65-17.23-106.72-59.45-116-111.82C28.19,138.42,105.17,55,214.48,35.71S424.67,68.51,439.36,151.8s-62.3,166.72-171.61,186a265.15,265.15,0,0,1-38.23,3.93c-13.24,21.8-35.82,38.94-67.23,51A12.37,12.37,0,0,1,159.93,393.41ZM173.38,311a12.7,12.7,0,0,1,10.14,11,101.92,101.92,0,0,1-1.15,32.18c12.82-8.63,22.2-18.79,28-30.37A12.74,12.74,0,0,1,222,316.4a239,239,0,0,0,41.38-3.66c95.5-16.84,163.22-87.05,151-156.52S314.4,43.93,218.9,60.77s-163.22,87-151,156.52C75.79,261.86,116.18,297.73,173.38,311Z" style="fill:url(#Naamloos_verloop_93)"/><path d="M361.24,193.34c-22.89,0-34.93-6-45.55-11.33-9.68-4.85-18.05-9-35.87-9s-26.18,4.18-35.86,9c-10.62,5.31-22.66,11.33-45.55,11.33s-34.93-6-45.55-11.33c-9.68-4.85-18-9-35.86-9-6.43,0-11.64-5.69-11.64-12.72s5.21-12.72,11.64-12.72c22.89,0,34.92,6,45.54,11.33,9.69,4.84,18.05,9,35.87,9s26.18-4.18,35.86-9c10.63-5.31,22.66-11.33,45.55-11.33s34.93,6,45.56,11.33c9.68,4.84,18,9,35.86,9,6.43,0,11.64,5.7,11.64,12.73S367.67,193.34,361.24,193.34Z" style="fill:url(#Naamloos_verloop_94)"/><path d="M361.24,243c-22.89,0-34.93-6-45.55-11.33-9.68-4.84-18.05-9-35.87-9s-26.18,4.18-35.86,9C233.34,236.94,221.3,243,198.41,243s-34.93-6-45.55-11.33c-9.68-4.84-18-9-35.86-9-6.43,0-11.64-5.7-11.64-12.72s5.21-12.72,11.64-12.72c22.89,0,34.92,6,45.54,11.33,9.69,4.84,18.05,9,35.87,9s26.18-4.18,35.86-9c10.63-5.32,22.66-11.33,45.55-11.33s34.93,6,45.56,11.33c9.68,4.84,18,9,35.86,9,6.43,0,11.64,5.69,11.64,12.72S367.67,243,361.24,243Z" style="fill:url(#Naamloos_verloop_94-2)"/></svg>