<svg id="Laag_1" data-name="Laag 1" xmlns="http://www.w3.org/2000/svg" viewBox="0 0 100 100"><path d="M33.43,52.62a14.63,14.63,0,1,1-3-17,20.31,20.31,0,0,0,3,17Z" style="fill:#1e4351"/><path d="M11.5,101.86a37.42,37.42,0,0,0,4.29,17.65c-13.54-2-23.88-12.73-23.88-27.15,0-16,12.71-30.45,28.4-30.45a25.86,25.86,0,0,1,12.5,3.25A42.11,42.11,0,0,0,11.5,101.86Z" style="fill:#1e4351"/><path d="M94.44,46.17a14.62,14.62,0,0,1-27.8,6.34,20.19,20.19,0,0,0,3.67-11.63,19.75,19.75,0,0,0-.68-5.19h0A14.62,14.62,0,0,1,94.44,46.17Z" style="fill:#1e4351"/><path d="M108.22,92.36c0,14.47-10.41,25.25-24,27.17a37.48,37.48,0,0,0,4.3-17.67A42.14,42.14,0,0,0,67.25,65.19a26,26,0,0,1,12.57-3.28C95.51,61.91,108.22,76.36,108.22,92.36Z" style="fill:#1e4351"/><circle cx="50" cy="40.88" r="17.09" style="fill:#1e4351"/><path d="M84.48,101.7c0,19.42-15.44,33.37-34.48,33.37S15.52,121.12,15.52,101.7,31,64.74,50,64.74,84.48,82.28,84.48,101.7Z" style="fill:#1e4351"/></svg>